<svg width="25" height="24" viewBox="0 0 25 24" fill="none" xmlns="http://www.w3.org/2000/svg">
<path fill-rule="evenodd" clip-rule="evenodd" d="M7.17652 2.66974C4.1904 4.14722 1.76356 5.37182 1.78353 5.39101C1.80351 5.4102 2.77054 5.89353 3.93252 6.46512L6.04521 7.50432L11.471 4.72439C14.4551 3.19549 16.8962 1.93236 16.8956 1.91753C16.895 1.90275 16.0351 1.46978 14.9846 0.955433C13.4435 0.200834 13.0295 0.0167006 12.8403 0.00182542C12.6113 -0.0161468 12.4774 0.0469671 7.17652 2.66974ZM13.5138 5.72774C9.05604 8.01115 8.10453 8.51494 8.1677 8.55839C8.20996 8.58748 9.27458 9.11886 10.5335 9.73925L12.8226 10.8672L16.0907 9.24725C17.8881 8.35624 20.3823 7.12052 21.6332 6.50125L23.9076 5.37529L21.4516 4.16082C20.1008 3.4929 18.9824 2.94721 18.9661 2.94819C18.95 2.94918 16.4964 4.19996 13.5138 5.72774ZM0.812608 12.4085C0.813593 17.5937 0.817626 17.8537 0.900209 18.0328C0.947808 18.136 1.03705 18.266 1.09848 18.3217C1.15992 18.3773 3.60538 19.6729 6.53283 21.2008C9.46028 22.7286 11.8713 23.9883 11.8906 24C11.91 24.0116 11.9258 21.4159 11.9258 18.2315V12.4419L9.55332 11.2722C8.24846 10.6288 7.16165 10.0954 7.1382 10.0868C7.11316 10.0776 7.09558 10.7342 7.09558 11.6792C7.09558 13.2219 7.09154 13.2955 6.99611 13.4928C6.75652 13.988 6.06636 14.1321 5.65692 13.7724C5.31294 13.4702 5.31589 13.4922 5.31336 11.2052L5.31111 9.16396L3.14341 8.09904C1.95118 7.51333 0.938757 7.02015 0.893643 7.00302C0.815797 6.9735 0.811623 7.24998 0.812608 12.4085ZM19.265 9.70261L13.7782 12.4162L13.7495 14.5206C13.7337 15.678 13.7179 18.2773 13.7143 20.2969C13.7092 23.2083 13.72 23.968 13.7665 23.9651C13.7987 23.9631 16.2941 22.6694 19.3119 21.0902L24.7986 18.2189L24.8105 12.6004C24.8171 9.51026 24.8066 6.98354 24.7871 6.98547C24.7676 6.98739 22.2827 8.21007 19.265 9.70261Z" fill="#B1404B"/>
</svg>
