<svg width="153" height="40" viewBox="0 0 153 40" fill="none" xmlns="http://www.w3.org/2000/svg">
<g clip-path="url(#clip0_2_23)">
<path fill-rule="evenodd" clip-rule="evenodd" d="M20.7708 7.51167L7.515 15.9808L7.51083 15.9842L7.51 15.9867C7.5037 15.9997 7.50028 16.0139 7.5 16.0283C7.5 16.0508 7.50417 16.0667 7.50833 16.0742C7.50833 16.0775 7.51 16.0783 7.51 16.0792H7.51083L7.51583 16.0842L20.7717 25.8183L34.1508 16.0842L34.1567 16.0792L34.1575 16.0775L34.1592 16.075C34.165 16.0605 34.1676 16.0448 34.1667 16.0292C34.1665 16.0144 34.1631 15.9999 34.1567 15.9867L34.1558 15.9842L34.1517 15.9817L20.7717 7.51167H20.7708ZM21.6325 12.7508L29.4067 17.6717L27.9567 18.7267L20.7708 14.1783L13.655 18.725L12.215 17.6667L19.9042 12.755C20.1618 12.5893 20.4614 12.5008 20.7677 12.5001C21.074 12.4994 21.3741 12.5864 21.6325 12.7508Z" fill="#B1404B"/>
<path fill-rule="evenodd" clip-rule="evenodd" d="M0 0H40V40H0V0ZM6.6175 14.5767C5.61083 15.22 5.56417 16.7183 6.52917 17.4267L19.8158 27.185C20.3867 27.6033 21.1492 27.605 21.7208 27.1892L35.1308 17.4317C36.1042 16.7233 36.0575 15.215 35.0433 14.5733L21.6325 6.08417C21.3741 5.9197 21.074 5.83269 20.7677 5.83343C20.4614 5.83417 20.1618 5.92263 19.9042 6.08833L6.61667 14.5767H6.6175ZM7.6975 20.5533L9.1375 21.6117L7.515 22.6475C7.51354 22.6485 7.51215 22.6496 7.51083 22.6508L7.51 22.6533C7.5037 22.6663 7.50028 22.6805 7.5 22.695C7.5 22.7175 7.50417 22.7333 7.50833 22.7408C7.50833 22.7442 7.51 22.7458 7.51 22.7458L7.51583 22.7508L20.7717 32.485L34.105 22.785C33.4767 24.5892 33.9542 23.2275 34.11 22.78L34.1508 22.7508L34.1567 22.7458L34.1575 22.7442L34.1592 22.7417C34.165 22.7271 34.1676 22.7115 34.1667 22.6958C34.1665 22.6811 34.1631 22.6666 34.1567 22.6533L34.1558 22.6508L34.11 22.78L34.1042 22.7842L34.1517 22.6483L32.5017 21.6033L33.9517 20.5492L35.0433 21.24C36.0575 21.8817 36.1042 23.39 35.1308 24.0983L21.7217 33.8558C21.15 34.2725 20.3875 34.27 19.8167 33.8517L6.52917 24.0933C5.56417 23.385 5.61083 21.8867 6.6175 21.2433L7.6975 20.5533Z" fill="#B1404B"/>
</g>
<path d="M51.7216 29V11.5455H54.8835V26.3494H62.571V29H51.7216ZM70.8892 29.2557C69.6108 29.2557 68.5028 28.9744 67.5653 28.4119C66.6278 27.8494 65.9006 27.0625 65.3835 26.0511C64.8722 25.0398 64.6165 23.858 64.6165 22.5057C64.6165 21.1534 64.8722 19.9687 65.3835 18.9517C65.9006 17.9347 66.6278 17.1449 67.5653 16.5824C68.5028 16.0199 69.6108 15.7386 70.8892 15.7386C72.1676 15.7386 73.2756 16.0199 74.2131 16.5824C75.1506 17.1449 75.875 17.9347 76.3864 18.9517C76.9034 19.9687 77.1619 21.1534 77.1619 22.5057C77.1619 23.858 76.9034 25.0398 76.3864 26.0511C75.875 27.0625 75.1506 27.8494 74.2131 28.4119C73.2756 28.9744 72.1676 29.2557 70.8892 29.2557ZM70.9062 26.7841C71.5994 26.7841 72.179 26.5937 72.6449 26.2131C73.1108 25.8267 73.4574 25.3097 73.6847 24.6619C73.9176 24.0142 74.0341 23.2926 74.0341 22.4972C74.0341 21.696 73.9176 20.9716 73.6847 20.3239C73.4574 19.6705 73.1108 19.1506 72.6449 18.7642C72.179 18.3778 71.5994 18.1847 70.9062 18.1847C70.196 18.1847 69.6051 18.3778 69.1335 18.7642C68.6676 19.1506 68.3182 19.6705 68.0852 20.3239C67.858 20.9716 67.7443 21.696 67.7443 22.4972C67.7443 23.2926 67.858 24.0142 68.0852 24.6619C68.3182 25.3097 68.6676 25.8267 69.1335 26.2131C69.6051 26.5937 70.196 26.7841 70.9062 26.7841ZM85.4737 34.1818C84.3658 34.1818 83.4141 34.0313 82.6186 33.7301C81.8232 33.4347 81.1839 33.0369 80.701 32.5369C80.218 32.0369 79.8828 31.483 79.6953 30.875L82.4737 30.2017C82.5987 30.4574 82.7805 30.7102 83.0192 30.9602C83.2578 31.2159 83.5788 31.4261 83.9822 31.5909C84.3913 31.7614 84.9055 31.8466 85.5249 31.8466C86.3999 31.8466 87.1243 31.6335 87.6982 31.2074C88.272 30.7869 88.5589 30.0938 88.5589 29.1278V26.6477H88.4055C88.2464 26.9659 88.0135 27.2926 87.7067 27.6278C87.4055 27.9631 87.005 28.2443 86.505 28.4716C86.0107 28.6989 85.3885 28.8125 84.6385 28.8125C83.6328 28.8125 82.7209 28.5767 81.9027 28.1051C81.0902 27.6278 80.4425 26.9176 79.9595 25.9744C79.4822 25.0256 79.2436 23.8381 79.2436 22.4119C79.2436 20.9744 79.4822 19.7614 79.9595 18.7727C80.4425 17.7784 81.093 17.0256 81.9112 16.5142C82.7294 15.9972 83.6413 15.7386 84.647 15.7386C85.4141 15.7386 86.0447 15.8693 86.5391 16.1307C87.0391 16.3864 87.4368 16.696 87.7322 17.0597C88.0277 17.4176 88.2521 17.7557 88.4055 18.0739H88.576V15.9091H91.6186V29.2131C91.6186 30.3324 91.3516 31.2585 90.8175 31.9915C90.2834 32.7244 89.5533 33.2727 88.6271 33.6364C87.701 34 86.6499 34.1818 85.4737 34.1818ZM85.4993 26.392C86.1527 26.392 86.7095 26.233 87.1697 25.9148C87.63 25.5966 87.9794 25.1392 88.218 24.5426C88.4567 23.946 88.576 23.2301 88.576 22.3949C88.576 21.571 88.4567 20.8494 88.218 20.2301C87.9851 19.6108 87.6385 19.1307 87.1783 18.7898C86.7237 18.4432 86.1641 18.2699 85.4993 18.2699C84.8118 18.2699 84.2379 18.4489 83.7777 18.8068C83.3175 19.1648 82.9709 19.6562 82.7379 20.2812C82.505 20.9006 82.3885 21.6051 82.3885 22.3949C82.3885 23.196 82.505 23.8977 82.7379 24.5C82.9766 25.0966 83.326 25.5625 83.7862 25.8977C84.2521 26.2273 84.8232 26.392 85.4993 26.392ZM100.491 29.2557C99.2124 29.2557 98.1044 28.9744 97.1669 28.4119C96.2294 27.8494 95.5021 27.0625 94.9851 26.0511C94.4737 25.0398 94.218 23.858 94.218 22.5057C94.218 21.1534 94.4737 19.9687 94.9851 18.9517C95.5021 17.9347 96.2294 17.1449 97.1669 16.5824C98.1044 16.0199 99.2124 15.7386 100.491 15.7386C101.769 15.7386 102.877 16.0199 103.815 16.5824C104.752 17.1449 105.477 17.9347 105.988 18.9517C106.505 19.9687 106.763 21.1534 106.763 22.5057C106.763 23.858 106.505 25.0398 105.988 26.0511C105.477 27.0625 104.752 27.8494 103.815 28.4119C102.877 28.9744 101.769 29.2557 100.491 29.2557ZM100.508 26.7841C101.201 26.7841 101.781 26.5937 102.246 26.2131C102.712 25.8267 103.059 25.3097 103.286 24.6619C103.519 24.0142 103.636 23.2926 103.636 22.4972C103.636 21.696 103.519 20.9716 103.286 20.3239C103.059 19.6705 102.712 19.1506 102.246 18.7642C101.781 18.3778 101.201 18.1847 100.508 18.1847C99.7976 18.1847 99.2067 18.3778 98.7351 18.7642C98.2692 19.1506 97.9197 19.6705 97.6868 20.3239C97.4595 20.9716 97.3459 21.696 97.3459 22.4972C97.3459 23.2926 97.4595 24.0142 97.6868 24.6619C97.9197 25.3097 98.2692 25.8267 98.7351 26.2131C99.2067 26.5937 99.7976 26.7841 100.508 26.7841ZM115.919 15.9091V18.2955H108.393V15.9091H115.919ZM110.251 12.7727H113.337V25.0625C113.337 25.4773 113.399 25.7955 113.524 26.017C113.655 26.233 113.825 26.3807 114.036 26.4602C114.246 26.5398 114.479 26.5795 114.734 26.5795C114.928 26.5795 115.104 26.5653 115.263 26.5369C115.428 26.5085 115.553 26.483 115.638 26.4602L116.158 28.8722C115.993 28.929 115.757 28.9915 115.45 29.0597C115.149 29.1278 114.78 29.1676 114.342 29.179C113.57 29.2017 112.874 29.0852 112.254 28.8295C111.635 28.5682 111.143 28.1648 110.78 27.6193C110.422 27.0739 110.246 26.392 110.251 25.5739V12.7727ZM118.499 29V15.9091H121.585V29H118.499ZM120.05 14.0511C119.562 14.0511 119.141 13.8892 118.789 13.5653C118.437 13.2358 118.261 12.8409 118.261 12.3807C118.261 11.9148 118.437 11.5199 118.789 11.196C119.141 10.8665 119.562 10.7017 120.05 10.7017C120.545 10.7017 120.965 10.8665 121.312 11.196C121.664 11.5199 121.84 11.9148 121.84 12.3807C121.84 12.8409 121.664 13.2358 121.312 13.5653C120.965 13.8892 120.545 14.0511 120.05 14.0511ZM124.757 33.9091V15.9091H127.791V18.0739H127.97C128.129 17.7557 128.354 17.4176 128.643 17.0597C128.933 16.696 129.325 16.3864 129.82 16.1307C130.314 15.8693 130.945 15.7386 131.712 15.7386C132.723 15.7386 133.635 15.9972 134.447 16.5142C135.266 17.0256 135.913 17.7841 136.391 18.7898C136.874 19.7898 137.115 21.017 137.115 22.4716C137.115 23.9091 136.879 25.1307 136.408 26.1364C135.936 27.142 135.294 27.9091 134.482 28.4375C133.669 28.9659 132.749 29.2301 131.72 29.2301C130.97 29.2301 130.348 29.1051 129.854 28.8551C129.359 28.6051 128.962 28.304 128.661 27.9517C128.365 27.5937 128.135 27.2557 127.97 26.9375H127.842V33.9091H124.757ZM127.783 22.4545C127.783 23.3011 127.902 24.0426 128.141 24.679C128.385 25.3153 128.734 25.8125 129.189 26.1705C129.649 26.5227 130.206 26.6989 130.859 26.6989C131.541 26.6989 132.112 26.517 132.572 26.1534C133.033 25.7841 133.379 25.2812 133.612 24.6449C133.851 24.0028 133.97 23.2727 133.97 22.4545C133.97 21.642 133.854 20.9205 133.621 20.2898C133.388 19.6591 133.041 19.1648 132.581 18.8068C132.121 18.4489 131.547 18.2699 130.859 18.2699C130.2 18.2699 129.641 18.4432 129.18 18.7898C128.72 19.1364 128.371 19.6222 128.132 20.2472C127.899 20.8722 127.783 21.608 127.783 22.4545ZM145.467 29.2557C144.189 29.2557 143.081 28.9744 142.143 28.4119C141.206 27.8494 140.479 27.0625 139.962 26.0511C139.45 25.0398 139.195 23.858 139.195 22.5057C139.195 21.1534 139.45 19.9687 139.962 18.9517C140.479 17.9347 141.206 17.1449 142.143 16.5824C143.081 16.0199 144.189 15.7386 145.467 15.7386C146.746 15.7386 147.854 16.0199 148.791 16.5824C149.729 17.1449 150.453 17.9347 150.964 18.9517C151.482 19.9687 151.74 21.1534 151.74 22.5057C151.74 23.858 151.482 25.0398 150.964 26.0511C150.453 27.0625 149.729 27.8494 148.791 28.4119C147.854 28.9744 146.746 29.2557 145.467 29.2557ZM145.484 26.7841C146.178 26.7841 146.757 26.5937 147.223 26.2131C147.689 25.8267 148.036 25.3097 148.263 24.6619C148.496 24.0142 148.612 23.2926 148.612 22.4972C148.612 21.696 148.496 20.9716 148.263 20.3239C148.036 19.6705 147.689 19.1506 147.223 18.7642C146.757 18.3778 146.178 18.1847 145.484 18.1847C144.774 18.1847 144.183 18.3778 143.712 18.7642C143.246 19.1506 142.896 19.6705 142.663 20.3239C142.436 20.9716 142.322 21.696 142.322 22.4972C142.322 23.2926 142.436 24.0142 142.663 24.6619C142.896 25.3097 143.246 25.8267 143.712 26.2131C144.183 26.5937 144.774 26.7841 145.484 26.7841Z" fill="#1E1E1E"/>
<defs>
<clipPath id="clip0_2_23">
<rect width="40" height="40" fill="white"/>
</clipPath>
</defs>
</svg>
